<!-- Generated by scripts/generate-readme-overview-art.mjs -->
<svg xmlns="http://www.w3.org/2000/svg" width="1200" height="675" viewBox="0 0 1200 675" role="img" aria-labelledby="pi0tu1x-title pi0tu1x-desc">
  <title id="pi0tu1x-title">wedding project overview</title>
  <desc id="pi0tu1x-desc">Designer-style overview artwork for garethpaul/wedding showing purpose, runtime, verification, and project surfaces.</desc>
  <defs>
    <linearGradient id="pi0tu1x-bg" x1="0" y1="0" x2="1" y2="1">
      <stop offset="0%" stop-color="#eae9fc"/>
      <stop offset="48%" stop-color="#f8fafc"/>
      <stop offset="100%" stop-color="#ddf2fc"/>
    </linearGradient>
    <linearGradient id="pi0tu1x-stage" x1="0" y1="0" x2="1" y2="1">
      <stop offset="0%" stop-color="#17143a"/>
      <stop offset="58%" stop-color="#27226a"/>
      <stop offset="100%" stop-color="#153461"/>
    </linearGradient>
    <linearGradient id="pi0tu1x-accent" x1="0" y1="0" x2="1" y2="1">
      <stop offset="0%" stop-color="#4f46e5"/>
      <stop offset="52%" stop-color="#0ea5e9"/>
      <stop offset="100%" stop-color="#f97316"/>
    </linearGradient>
    <linearGradient id="pi0tu1x-soft" x1="0" y1="0" x2="1" y2="1">
      <stop offset="0%" stop-color="#d5d3f9"/>
      <stop offset="100%" stop-color="#fee0cc"/>
    </linearGradient>
    <filter id="pi0tu1x-shadow" x="-20%" y="-20%" width="140%" height="150%">
      <feDropShadow dx="0" dy="18" stdDeviation="18" flood-color="#0f172a" flood-opacity="0.14"/>
    </filter>
    <filter id="pi0tu1x-miniShadow" x="-20%" y="-20%" width="140%" height="150%">
      <feDropShadow dx="0" dy="8" stdDeviation="10" flood-color="#0f172a" flood-opacity="0.12"/>
    </filter>
    <pattern id="pi0tu1x-grid" width="24" height="24" patternUnits="userSpaceOnUse">
      <path d="M24 0H0v24" fill="none" stroke="#94a3b8" stroke-opacity="0.16" stroke-width="1"/>
    </pattern>
    <style>
      .label { font: 700 13px ui-sans-serif, system-ui, -apple-system, BlinkMacSystemFont, "Segoe UI", sans-serif; letter-spacing: 0; text-transform: uppercase; }
      .body { font-family: ui-sans-serif, system-ui, -apple-system, BlinkMacSystemFont, "Segoe UI", sans-serif; letter-spacing: 0; }
    </style>
  </defs>

  <rect width="1200" height="675" fill="url(#pi0tu1x-bg)"/>
  <rect width="1200" height="675" fill="url(#pi0tu1x-grid)" opacity="0.65"/>
  <circle cx="139" cy="618" r="166" fill="#4f46e5" opacity="0.10"/>
  <circle cx="979" cy="104" r="192" fill="#0ea5e9" opacity="0.12"/>
  <path d="M66 560 C214 512 278 642 430 584 C576 528 676 408 838 462 C966 504 1034 426 1134 356" fill="none" stroke="#f97316" stroke-width="2" stroke-opacity="0.18"/>

  <rect x="48" y="38" width="1104" height="599" rx="34" fill="#ffffff" opacity="0.94" filter="url(#pi0tu1x-shadow)"/>
  <rect x="49" y="39" width="1102" height="597" rx="33" fill="none" stroke="#e2e8f0" stroke-width="1"/>

  <g class="body">
    <rect x="84" y="76" width="48" height="48" rx="14" fill="url(#pi0tu1x-accent)"/>
    <path d="M21 3 38 12v18L21 39 4 30V12z M4 12l17 9 17-9 M21 21v18" transform="translate(98 90)" stroke="#ffffff" stroke-width="4" stroke-linecap="round" stroke-linejoin="round" fill="none"/>
    <text x="148" y="110" fill="#0f172a" font-size="39" font-weight="800">wedding</text>
    <rect x="910" y="78" width="196" height="36" rx="18" fill="#e1e0fb" stroke="#aeaaf3"/>
    <circle cx="934" cy="96" r="6" fill="#4f46e5"/>
    <text x="950" y="101" fill="#212443" font-size="15" font-weight="700">Developer library</text>
    <text x="86" y="166" fill="#475569" font-size="20" font-weight="500">A static web project. Wedding stuff.</text>
  </g>

  <g transform="translate(84 222)">
    <rect x="0" y="0" width="622" height="328" rx="28" fill="url(#pi0tu1x-stage)"/>
    <rect x="1" y="1" width="620" height="326" rx="27" fill="none" stroke="#ffffff" stroke-opacity="0.12"/>
    <path d="M34 270 C116 228 166 286 250 236 C338 184 430 214 588 96" fill="none" stroke="#ffffff" stroke-opacity="0.12" stroke-width="2"/>
    <circle cx="76" cy="66" r="58" fill="#4f46e5" opacity="0.20"/>
    <circle cx="548" cy="74" r="78" fill="#0ea5e9" opacity="0.16"/>
    <g class="body">
    <rect x="72" y="58" width="216" height="214" rx="26" fill="#ffffff" opacity="0.95" filter="url(#pi0tu1x-miniShadow)"/>
    <text x="104" y="100" fill="#0f172a" font-size="19" font-weight="800">package</text>
    <rect x="104" y="126" width="92" height="18" rx="9" fill="#bcb9f5"/>
    <rect x="104" y="162" width="142" height="14" rx="7" fill="#e2e8f0"/>
    <rect x="104" y="192" width="122" height="14" rx="7" fill="#e2e8f0"/>
    <rect x="104" y="226" width="86" height="26" rx="13" fill="#4f46e5"/>
    <text x="147" y="244" fill="#ffffff" font-size="12" font-weight="800" text-anchor="middle">install</text>
    <rect x="340" y="58" width="204" height="214" rx="26" fill="#111827" filter="url(#pi0tu1x-miniShadow)"/>
    <text x="370" y="101" fill="#93c5fd" font-size="17" font-weight="800">import</text>
    <text x="370" y="136" fill="#e5e7eb" font-size="15" font-weight="700">wedding</text>
    <rect x="370" y="166" width="122" height="12" rx="6" fill="#334155"/>
    <rect x="370" y="194" width="148" height="12" rx="6" fill="#0ea5e9"/>
    <rect x="370" y="222" width="94" height="12" rx="6" fill="#f97316"/>
    <path d="M288 166h52" stroke="#ffffff" stroke-width="5" stroke-linecap="round" opacity="0.82"/>
    <path d="M326 153l18 13-18 13" fill="#ffffff" opacity="0.82"/>
  </g>
  </g>

  <g class="body" transform="translate(742 222)">
    <rect x="0" y="0" width="364" height="302" rx="26" fill="#f8fafc" stroke="#e2e8f0"/>
    <rect x="22" y="22" width="320" height="52" rx="18" fill="#ffffff" stroke="#e5e7eb"/>
    <text x="44" y="55" fill="#0f172a" font-size="20" font-weight="800">Project system map</text>
    <g transform="translate(24 94)">
      <circle cx="10" cy="15" r="6" fill="#4f46e5"/>
      <text x="28" y="11" fill="#64748b" font-size="12" font-weight="800">STACK</text>
      <text x="28" y="34" fill="#1f2937" font-size="15" font-weight="650">JavaScript</text>
    </g>
<g transform="translate(24 145)">
      <circle cx="10" cy="15" r="6" fill="#0ea5e9"/>
      <text x="28" y="11" fill="#64748b" font-size="12" font-weight="800">SURFACE</text>
      <text x="28" y="34" fill="#1f2937" font-size="15" font-weight="650">Docs: README and project notes</text>
    </g>
<g transform="translate(24 196)">
      <circle cx="10" cy="15" r="6" fill="#f97316"/>
      <text x="28" y="11" fill="#64748b" font-size="12" font-weight="800">VERIFY</text>
      <text x="28" y="34" fill="#1f2937" font-size="15" font-weight="650">make verify runs static Express...</text>
    </g>
<g transform="translate(24 247)">
      <circle cx="10" cy="15" r="6" fill="#4f46e5"/>
      <text x="28" y="11" fill="#64748b" font-size="12" font-weight="800">FOCUS</text>
      <text x="28" y="34" fill="#1f2937" font-size="15" font-weight="650">repeatable checks + credential hygiene</text>
    </g>
  </g>
  <g class="body">
    <rect x="84" y="574" width="180.4" height="30" rx="15" fill="#e3e1fb" stroke="#b5b1f4"/>
    <text x="100" y="594" fill="#37349e" font-size="13" font-weight="800">Developer library</text>
<rect x="274.4" y="574" width="130" height="30" rx="15" fill="#d8f1fb" stroke="#9ad9f6"/>
    <text x="290.4" y="594" fill="#0e6fa0" font-size="13" font-weight="800">JavaScript</text>
<rect x="414.4" y="574" width="92" height="30" rx="15" fill="#fee9da" stroke="#fcc49d"/>
    <text x="430.4" y="594" fill="#a0501e" font-size="13" font-weight="800">Docs</text>
<rect x="516.4" y="574" width="180.4" height="30" rx="15" fill="#e3e1fb" stroke="#b5b1f4"/>
    <text x="532.4" y="594" fill="#37349e" font-size="13" font-weight="800">repeatable checks</text>
  </g>

  <g class="body">
    <text x="84" y="613" fill="#64748b" font-size="15" font-weight="600">garethpaul/wedding</text>
    <text x="1008" y="613" fill="#94a3b8" font-size="14" text-anchor="end">Source-aware README artwork</text>
    <circle cx="1028" cy="609" r="4" fill="#4f46e5"/>
    <circle cx="1044" cy="609" r="4" fill="#0ea5e9"/>
    <circle cx="1060" cy="609" r="4" fill="#f97316"/>
  </g>
</svg>
